HIERARCHY
ROOT Hips
{
    OFFSET 0.000000 0.000000 0.000000
    CHANNELS 6 Xposition Yposition Zposition Zrotation Xrotation Yrotation
    JOINT Spine
    {
        OFFSET -0.000000 7.246840 0.000000
        CHANNELS 3 Zrotation Xrotation Yrotation
        JOINT Spine1
        {
            OFFSET -0.000000 20.289354 0.000000
            CHANNELS 3 Zrotation Xrotation Yrotation
            JOINT Neck
            {
                OFFSET -0.000000 20.206032 1.836912
                CHANNELS 3 Zrotation Xrotation Yrotation
                JOINT Head
                {
                    OFFSET -0.000000 12.372654 -1.767522
                    CHANNELS 3 Zrotation Xrotation Yrotation
                    End Site
                    {
                        OFFSET -0.000000 22.094025 0.000000
                    }
                }
            }
            JOINT LeftShoulder
            {
                OFFSET 3.465871 17.201674 -0.568930
                CHANNELS 3 Zrotation Xrotation Yrotation
                JOINT LeftArm
                {
                    OFFSET 14.070313 0.000000 0.000000
                    CHANNELS 3 Zrotation Xrotation Yrotation
                    JOINT LeftForeArm
                    {
                        OFFSET 26.549477 0.000000 0.000000
                        CHANNELS 3 Zrotation Xrotation Yrotation
                        JOINT LeftHand
                        {
                            OFFSET 18.880413 0.000000 0.000000
                            CHANNELS 3 Zrotation Xrotation Yrotation
                            End Site
                            {
                                OFFSET 13.256415 0.000000 0.000000
                            }
                        }
                    }
                }
            }
            JOINT RightShoulder
            {
                OFFSET -3.526370 17.201674 -0.568930
                CHANNELS 3 Zrotation Xrotation Yrotation
                JOINT RightArm
                {
                    OFFSET -14.070313 0.000000 0.000000
                    CHANNELS 3 Zrotation Xrotation Yrotation
                    JOINT RightForeArm
                    {
                        OFFSET -26.549477 0.000000 0.000000
                        CHANNELS 3 Zrotation Xrotation Yrotation
                        JOINT RightHand
                        {
                            OFFSET -18.880413 0.000000 0.000000
                            CHANNELS 3 Zrotation Xrotation Yrotation
                            End Site
                            {
                                OFFSET -13.256415 0.000000 0.000000
                            }
                        }
                    }
                }
            }
        }
    }
    JOINT LeftUpLeg
    {
        OFFSET 8.837609 0.000000 0.000000
        CHANNELS 3 Zrotation Xrotation Yrotation
        JOINT LeftLeg
        {
            OFFSET -0.000000 -41.345005 0.000000
            CHANNELS 3 Zrotation Xrotation Yrotation
            JOINT LeftFoot
            {
                OFFSET -0.000000 -35.500874 0.000000
                CHANNELS 3 Zrotation Xrotation Yrotation
                JOINT LeftToeBase
                {
                    OFFSET -0.000000 -5.744446 13.256415
                    CHANNELS 3 Zrotation Xrotation Yrotation
                    End Site
                    {
                        OFFSET -0.000000 0.000000 3.535044
                    }
                }
            }
        }
    }
    JOINT RightUpLeg
    {
        OFFSET -8.837609 0.000000 0.000000
        CHANNELS 3 Zrotation Xrotation Yrotation
        JOINT RightLeg
        {
            OFFSET -0.000000 -41.345005 0.000000
            CHANNELS 3 Zrotation Xrotation Yrotation
            JOINT RightFoot
            {
                OFFSET -0.000000 -35.500874 0.000000
                CHANNELS 3 Zrotation Xrotation Yrotation
                JOINT RightToeBase
                {
                    OFFSET -0.000000 -5.744446 13.256415
                    CHANNELS 3 Zrotation Xrotation Yrotation
                    End Site
                    {
                        OFFSET -0.000000 0.000000 3.535044
                    }
                }
            }
        }
    }
}
MOTION
Frames:    14
Frame Time:    0.010000
5.355927    82.598648    -62.407578    1.796847    1.747572    -6.071022    -12.740417    -12.136001    0.781892    1.302039    7.750784    2.053663    -8.194067    29.334703    -10.351664    25.246607    -8.318568    -6.421892    15.425996    -3.874636    9.201158    -47.675896    -17.233902    -15.063671    -24.769527    -34.941742    -76.692299    -18.203192    -44.108875    -48.033176    -5.736235    5.274206    14.873698    76.533577    57.676926    7.147187    -8.098193    -16.658251    26.187723    38.197094    -6.627687    23.778397    -2.172958    1.718405    3.968132    -0.875669    2.489616    -0.710518    3.020734    -2.923812    -3.220245    -0.266317    -3.864451    0.381877    -5.227373    4.492754    3.240325    8.055546    -9.535057    4.542678    -1.541007    1.157155    -5.484697    -0.376576    0.131652    0.674359    
5.416629    82.600800    -62.435520    1.860388    1.798791    -6.000346    -12.534968    -12.116850    0.802530    1.291579    7.690363    2.051479    -8.037873    29.244102    -9.629465    23.945072    -8.541895    -5.875435    15.472111    -3.884474    9.194543    -47.675896    -17.233902    -15.063671    -25.073120    -34.297241    -76.836403    -17.714396    -43.970165    -47.754955    -5.714896    5.210369    14.871325    76.722778    57.605019    6.910216    -8.307866    -16.428476    26.245546    38.114342    -6.414584    23.615543    -2.251435    1.651154    3.895530    -0.912387    2.446722    -0.658713    3.107710    -2.874684    -3.378229    -0.394683    -3.886082    0.566020    -5.307284    4.426809    3.170128    8.021564    -9.541001    4.571341    -1.506335    1.152232    -5.584660    -0.428225    0.142342    0.766762    
5.475943    82.604828    -62.465477    1.925808    1.862071    -5.917571    -12.352876    -12.104904    0.813477    1.363452    7.641457    2.037312    -7.956816    29.163404    -8.880256    22.612471    -8.783172    -5.320113    15.349641    -3.774099    9.250652    -47.675896    -17.233902    -15.063671    -25.201025    -33.560905    -77.094254    -17.082401    -43.759312    -47.197144    -5.802598    4.826189    14.897636    77.579475    57.506222    6.074892    -8.678472    -16.038300    26.198908    38.338680    -5.899751    23.548285    -2.328501    1.556986    3.837048    -0.933485    2.429934    -0.732798    3.131080    -2.914464    -3.370340    -0.412772    -3.819862    0.591709    -5.394691    4.344652    3.089669    8.012463    -9.536014    4.639648    -1.507201    1.154966    -5.668704    -0.413239    0.126938    0.740052    
5.537600    82.616631    -62.499882    2.039148    1.973495    -5.843908    -12.235802    -12.157557    0.832714    1.467124    7.606357    2.043190    -7.863617    29.083700    -8.195858    21.237497    -8.975516    -4.855536    15.110502    -3.640223    9.287179    -47.675896    -17.233902    -15.063671    -25.141552    -32.823002    -77.471848    -16.614262    -43.480412    -46.072079    -5.865758    4.739658    14.859200    77.893402    57.217152    5.757402    -8.539420    -15.737502    26.417213    37.453369    -5.874701    23.365780    -2.453972    1.400716    3.781658    -0.958830    2.424958    -0.745660    3.105463    -2.886148    -3.372347    -0.353619    -3.773914    0.506764    -5.530045    4.243237    3.373886    7.965703    -9.649394    4.205794    -1.503410    1.190793    -5.604215    -0.398246    0.129935    0.713179    
5.596012    82.620766    -62.529026    2.095087    2.035372    -5.736551    -12.025676    -12.147614    0.871788    1.489897    7.569490    2.057558    -7.757800    29.008583    -7.481465    19.895210    -9.139569    -4.360401    15.050871    -3.501624    9.316364    -47.675896    -17.233902    -15.063671    -25.086292    -32.167103    -77.552071    -16.563046    -43.033947    -45.141212    -5.868332    4.737947    14.813843    78.056374    56.890572    5.564621    -8.835183    -15.348273    26.508465    37.733601    -5.445506    23.044495    -2.528144    1.300476    3.699979    -0.984060    2.426295    -0.749752    3.018523    -2.901022    -3.336041    -0.271809    -3.662641    0.389246    -5.606299    4.171136    3.286611    7.946883    -9.653268    4.215629    -1.490712    1.208844    -5.658342    -0.379732    0.091052    0.680308    
5.653209    82.622704    -62.561138    2.156467    2.094687    -5.605680    -11.821313    -12.136658    0.907059    1.510553    7.557981    2.068467    -7.626981    28.946531    -6.760309    18.473747    -9.333830    -3.873203    15.017069    -3.522836    9.299668    -47.675896    -17.233902    -15.063671    -24.862028    -31.654510    -77.307556    -16.954130    -42.348705    -44.428101    -5.887604    4.751611    14.745847    78.132225    56.672985    5.475838    -8.858065    -15.121374    26.647795    37.357891    -5.354160    22.834167    -2.620732    1.196031    3.644863    -0.969055    2.428815    -0.820723    3.037292    -2.855686    -3.357006    -0.271684    -3.657468    0.389054    -5.699506    4.103465    3.220257    7.959918    -9.641338    4.218768    -1.507447    1.190231    -5.738097    -0.391798    0.123908    0.701677    
5.710007    82.624405    -62.589432    2.206211    2.143544    -5.450519    -11.586886    -12.109169    0.940993    1.492547    7.551985    2.075696    -7.333336    28.895937    -6.017958    16.805243    -9.577710    -3.398232    14.980072    -3.493134    9.312599    -47.675896    -17.233902    -15.063671    -24.759624    -31.101013    -77.059097    -17.210215    -41.591930    -44.887737    -5.900231    4.745506    14.643776    78.218323    56.498486    5.413911    -8.900401    -14.915812    26.697815    37.068230    -5.256131    22.653902    -2.709080    1.105865    3.571620    -0.952887    2.434623    -0.849234    3.088362    -2.832228    -3.422732    -0.292463    -3.617638    0.418703    -5.775336    4.059804    3.134129    7.961638    -9.642505    4.215757    -1.489974    1.188321    -5.797742    -0.359652    0.110624    0.644200    
5.769001    82.623581    -62.616348    2.266781    2.193039    -5.291283    -11.338626    -12.092691    0.993369    1.441323    7.571520    2.102934    -7.032179    28.957315    -5.287710    15.117708    -9.993097    -2.932407    14.942707    -3.534410    9.304925    -47.675896    -17.233902    -15.063671    -25.004574    -30.657091    -76.997437    -18.222477    -41.011703    -44.956390    -5.891326    4.756711    14.547103    78.323486    56.255325    5.327698    -8.968292    -14.746446    26.755276    36.815956    -5.179921    22.471952    -2.810411    1.017810    3.459961    -0.940443    2.434495    -0.859909    3.171516    -2.796989    -3.511971    -0.354892    -3.666997    0.508239    -5.869399    3.986412    2.817872    8.018377    -9.535529    4.424326    -1.492750    1.105672    -5.872929    -0.369722    0.106630    0.662265    
5.826739    82.621696    -62.643589    2.322562    2.238704    -5.113756    -11.099225    -12.085627    1.043766    1.387941    7.616214    2.130042    -6.832103    28.891026    -4.435015    13.683083    -10.137054    -2.326245    14.876367    -3.415823    9.239519    -48.553154    -13.245578    -17.307562    -20.346813    -36.955406    -75.760834    -22.249178    -42.161552    -44.952518    -5.886310    4.810650    14.435673    78.323242    55.968433    5.360587    -8.978762    -14.580078    26.822386    36.521160    -5.153370    22.216076    -2.906013    0.931629    3.339023    -0.903481    2.423666    -0.951725    3.176327    -2.768128    -3.480237    -0.364887    -3.616544    0.522383    -5.960522    3.958519    2.761054    8.019070    -9.564415    4.399271    -1.288742    1.040253    -6.039148    -0.392143    0.115649    0.702358    
5.885555    82.618729    -62.669228    2.373739    2.278783    -4.918197    -10.823574    -12.067105    1.096740    1.294181    7.664580    2.157483    -6.629533    28.845264    -3.619490    12.180444    -10.271105    -1.780592    14.803450    -3.214105    9.170480    -48.894325    -13.649628    -17.475243    -20.302557    -36.327473    -75.757736    -22.992422    -41.360535    -44.668800    -5.878475    4.804804    14.326085    78.417603    55.704857    5.326155    -8.986782    -14.468290    26.833216    36.268833    -5.160198    22.010990    -2.999181    0.855289    3.193300    -0.888343    2.415240    -0.920952    3.191837    -2.712638    -3.589655    -0.392413    -3.625898    0.561823    -6.052047    3.942977    2.682751    8.031936    -9.594994    4.437393    -1.343796    1.061579    -6.210166    -0.427623    0.072333    0.766259    
5.943254    82.615623    -62.698322    2.428074    2.323920    -4.709435    -10.588403    -12.033958    1.134583    1.256611    7.694921    2.169325    -6.000494    28.854179    -2.896267    10.050305    -10.544441    -1.419355    14.733535    -3.122672    9.140474    -49.215294    -12.917977    -17.516104    -19.425140    -36.758621    -75.890526    -24.257990    -40.930492    -44.200039    -5.870216    4.900107    14.180234    78.249153    55.512691    5.522438    -8.939330    -14.393559    26.853378    35.964596    -5.229134    21.801165    -3.085087    0.769502    3.053311    -0.894024    2.416047    -0.948591    3.239111    -2.680273    -3.660653    -0.396899    -3.627718    0.568254    -6.142158    3.924820    2.618129    8.028198    -9.630672    4.416404    -1.322889    1.037264    -6.343353    -0.425733    0.116026    0.762516    
6.001432    82.614944    -62.728344    2.486195    2.373666    -4.487845    -10.356799    -11.991782    1.178418    1.206842    7.699306    2.187995    -5.961276    28.895350    -2.057142    8.849218    -10.697159    -0.811952    14.737056    -3.177255    9.167915    -50.035213    -14.132030    -17.883707    -19.282101    -35.689568    -75.345634    -26.669992    -39.228352    -42.733425    -5.863514    4.801445    14.248796    78.667213    55.153095    5.075943    -8.973076    -14.373234    26.916716    35.773975    -5.277452    21.675671    -3.178669    0.678824    2.951426    -0.862822    2.400772    -1.078431    3.191108    -2.641644    -3.653333    -0.370261    -3.586609    0.529976    -6.230567    3.903300    2.509394    8.038855    -9.657058    4.367755    -1.265826    1.019597    -6.375132    -0.334897    0.076559    0.600079    
6.054942    82.614136    -62.754936    2.547934    2.418757    -4.243018    -10.136951    -11.945661    1.230124    1.141229    7.704053    2.216637    -6.423255    28.890055    -1.230814    8.473106    -10.678295    -0.098297    14.744118    -3.239328    9.190714    -49.847691    -11.844973    -17.552998    -17.606403    -36.903320    -75.401344    -27.596827    -39.158314    -42.291542    -5.835387    4.871291    14.179113    78.832588    54.946167    4.828039    -8.832570    -14.617477    27.304029    35.164917    -5.781560    21.302341    -3.257836    0.597793    2.839128    -0.896624    2.401487    -1.103713    3.236877    -2.604334    -3.743434    -0.365230    -3.561157    0.522689    -6.317134    3.911865    2.465904    8.012969    -9.729953    4.281860    -1.296306    1.032299    -6.495655    -0.349572    0.085698    0.626313    
6.109057    82.613625    -62.779854    2.613772    2.462739    -3.979630    -9.938783    -11.900360    1.273601    1.107843    7.715096    2.237384    -6.399645    28.795181    -0.367184    7.342025    -10.609597    0.540531    14.651638    -3.178751    9.201175    -50.098583    -11.773959    -17.655067    -16.039631    -35.852242    -74.556625    -26.002666    -37.777016    -41.056339    -5.819442    4.895642    14.124710    78.911674    54.730572    4.703942    -9.118524    -14.447093    27.206247    35.666615    -5.400678    21.423998    -3.336775    0.531026    2.718684    -0.916214    2.357214    -1.240792    3.219612    -2.540088    -3.701308    -0.307064    -3.548481    0.439412    -6.407301    3.929054    2.376825    8.000900    -9.805672    4.143556    -1.338765    1.045111    -6.539127    -0.376355    0.079924    0.674339    
